<?xml version="1.0" encoding="iso-8859-1"?>
<!-- Generator: Adobe Illustrator 19.0.0, SVG Export Plug-In . SVG Version: 6.00 Build 0)  -->
<svg version="1.1" id="Layer_1" xmlns="http://www.w3.org/2000/svg" xmlns:xlink="http://www.w3.org/1999/xlink" x="0px" y="0px"
	 viewBox="0 0 338.179 338.179" style="enable-background:new 0 0 338.179 338.179;" xml:space="preserve">
<g>
	<g>
		<path d="M325.794,64.086c-4.472-2.236-14.621-4.472-27.092,4.472l-103.725,74.396c-9.03,6.795-14.621,15.826-14.621,25.974
			c0,10.149,5.677,19.179,14.621,25.974l103.725,74.396c6.794,5.676,13.503,6.795,18.062,6.795c4.472,0,7.913-1.118,9.03-1.118
			c4.472-3.354,12.385-10.149,12.385-27.092V91.178C338.179,73.116,330.353,66.322,325.794,64.086z M316.85,247.883h-0.086
			c0,2.236-1.118,4.472-1.118,5.676c-1.118,0-2.236-1.118-3.354-2.236l-104.842-73.277c-2.236-2.236-4.472-5.676-4.472-7.913
			c0-2.236,2.236-5.676,5.677-7.913l103.724-74.396c1.118-1.118,2.236-2.236,3.354-2.236c1.118,1.118,1.118,2.236,1.118,5.676
			V247.883z"/>
	</g>
</g>
<g>
	<g>
		<path d="M145.438,64.086c-4.472-2.236-14.621-4.472-27.092,4.472L14.621,142.954C5.591,149.749,0,158.78,0,168.929
			c0,10.149,5.677,19.179,14.621,25.974l103.725,74.396c6.794,5.676,13.503,6.795,18.062,6.795c4.472,0,7.913-1.118,9.03-1.118
			c4.472-3.354,12.385-10.149,12.385-27.092V91.178C157.823,73.116,149.91,66.322,145.438,64.086z M136.493,247.883h-0.086
			c0,2.236-1.118,4.472-1.118,5.676c-1.118-1.118-2.236-1.118-3.354-2.236L27.093,178.045c-2.236-2.236-4.472-5.676-4.472-7.913
			c0-2.236,2.236-5.676,5.677-7.913l103.724-74.396c1.118-1.118,2.236-2.236,3.354-2.236c1.118,1.118,1.118,2.236,1.118,5.676
			V247.883z"/>
	</g>
</g>
<g>
</g>
<g>
</g>
<g>
</g>
<g>
</g>
<g>
</g>
<g>
</g>
<g>
</g>
<g>
</g>
<g>
</g>
<g>
</g>
<g>
</g>
<g>
</g>
<g>
</g>
<g>
</g>
<g>
</g>
</svg>
